<svg version="1.1" xmlns="http://www.w3.org/2000/svg" xmlns:xlink="http://www.w3.org/1999/xlink" width="28.22646" height="38.22332" viewBox="0,0,28.22646,38.22332"><defs><linearGradient x1="36.9375" y1="337.15463" x2="8.71104" y2="337.15463" gradientUnits="userSpaceOnUse" id="color-1"><stop offset="0" stop-color="#89c9f9"/><stop offset="0.5" stop-color="#b9dcfa"/><stop offset="1" stop-color="#ddedfc"/></linearGradient></defs><g transform="translate(-8.71104,-323.0414)"><g data-paper-data="{&quot;isPaintingLayer&quot;:true}" stroke-linecap="butt" stroke-linejoin="miter" stroke-dasharray="" stroke-dashoffset="0" style="mix-blend-mode: normal"><g stroke="none"><path d="M8.71104,327.74592c0,-2.59822 2.1063,-4.70453 4.70453,-4.70453h18.81741c2.59822,0 4.70453,2.1063 4.70453,4.70453v18.8175c0,2.59822 -2.1063,4.70444 -4.70453,4.70444h-18.81741c-2.59822,0 -4.70453,-2.10622 -4.70453,-4.70444z" fill="url(#color-1)" fill-rule="evenodd" stroke-width="0" stroke-miterlimit="8"/><path d="M31.71926,329.73975h-17.96363v11.58371h17.96363zM33.30433,329.21322v12.63673c0,0.57921 -0.47549,1.05306 -1.05669,1.05306h-7.39681v1.57964h2.64167v1.57955h-9.51015v-1.57955h2.64173v-1.57964h-7.39681c-0.58118,0 -1.05669,-0.47386 -1.05669,-1.05306v-12.63673c0,-0.57919 0.4755,-1.05306 1.05669,-1.05306h19.02036c0.5812,0 1.05669,0.47387 1.05669,1.05306z" fill="#000000" fill-rule="nonzero" stroke-width="1" stroke-miterlimit="10"/></g><path d="M10.79948,361.26472v-4.16813h20.84063v4.16813z" fill="#ffffff" fill-rule="nonzero" stroke="#042433" stroke-width="0" stroke-miterlimit="10"/></g></g></svg>